<?xml version="1.0" encoding="UTF-8" standalone="no"?>
<svg
   viewBox="0 0 24.000001 24"
   version="1.1"
   id="svg6"
   width="24"
   height="24"
   xmlns="http://www.w3.org/2000/svg">
  <defs
     id="defs6" />
  <g
     id="g6"
     transform="translate(-4.296251,-3.9957887)">
    <g
       id="g5"
       transform="matrix(0.75019712,0,0,0.75019712,6.2452374,3.9957941)">
      <path
         d="M 13.54,15.28 0.12,29.34 a 3.64,3.64 0 0 0 5.33,2.16 l 15.1,-8.6 z"
         style="fill:#ea4335"
         id="path2" />
      <path
         d="m 27.11,12.89 -6.53,-3.74 -7.35,6.45 7.38,7.28 6.48,-3.7 a 3.55,3.55 0 0 0 0,-6.29 z"
         style="fill:#fbbc04"
         id="path3" />
      <path
         d="M 0.12,2.66 A 3.46,3.46 0 0 0 0,3.58 v 24.84 a 3.66,3.66 0 0 0 0.12,0.92 L 14,15.64 Z"
         style="fill:#4285f4"
         id="path4" />
      <path
         d="M 13.64,16 20.58,9.15 5.5,0.51 A 3.72,3.72 0 0 0 3.63,0 3.64,3.64 0 0 0 0.12,2.65 Z"
         style="fill:#34a853"
         id="path5" />
    </g>
  </g>
</svg>
